/* XPM */
static char *_2eeb58e41594f7a9b16bd019912544bsaw4EyWl7xdXnal6[] = {
/* columns rows colors chars-per-pixel */
"64 64 253 2 ",
"   c #060C05",
".  c #150E06",
"X  c #0D130C",
"o  c #0B1708",
"O  c #12150B",
"+  c #131A0C",
"@  c #181807",
"#  c #151B13",
"$  c #1B1D12",
"%  c #1B1B1A",
"&  c #151715",
"*  c #0C1412",
"=  c #24170B",
"-  c #2A1C14",
";  c #2F1710",
":  c #192709",
">  c #152312",
",  c #1B2314",
"<  c #1C2A15",
"1  c #1C241C",
"2  c #1A2719",
"3  c #193113",
"4  c #252609",
"5  c #27350A",
"6  c #36390A",
"7  c #232B1C",
"8  c #2A2B1C",
"9  c #262717",
"0  c #352819",
"q  c #28341A",
"w  c #383619",
"e  c #37290C",
"r  c #1D1D24",
"t  c #3C142C",
"y  c #311325",
"u  c #1E2922",
"i  c #272A25",
"p  c #352C25",
"a  c #2B3324",
"s  c #293726",
"d  c #363828",
"f  c #373935",
"g  c #322F34",
"h  c #4A3517",
"j  c #451D35",
"k  c #41162E",
"l  c #462923",
"z  c #473928",
"x  c #533927",
"c  c #4B273C",
"v  c #483936",
"b  c #573837",
"n  c #50243D",
"m  c #633D3A",
"M  c #3C4409",
"N  c #354617",
"B  c #38442A",
"V  c #3A4636",
"C  c #32482A",
"Z  c #3C6023",
"A  c #454718",
"S  c #495318",
"D  c #585B19",
"F  c #4E480B",
"G  c #665B1C",
"H  c #464827",
"J  c #475628",
"K  c #575A26",
"L  c #454837",
"P  c #564739",
"I  c #485638",
"U  c #575333",
"Y  c #685939",
"T  c #684E32",
"R  c #57632A",
"E  c #596639",
"W  c #4C692E",
"Q  c #656934",
"!  c #797938",
"~  c #706C2B",
"^  c #63641A",
"/  c #3D3C42",
"(  c #552C44",
")  c #59374A",
"_  c #533A4A",
"`  c #62354E",
"'  c #60394E",
"]  c #643B53",
"[  c #6A3C55",
"{  c #693B56",
"}  c #733D58",
"|  c #394642",
" . c #454747",
".. c #574849",
"X. c #4B5746",
"o. c #585849",
"O. c #565355",
"+. c #684948",
"@. c #66554A",
"#. c #735748",
"$. c #6D435B",
"%. c #674758",
"&. c #72445D",
"*. c #76475B",
"=. c #775858",
"-. c #6D5153",
";. c #576647",
":. c #56664F",
">. c #646547",
",. c #646757",
"<. c #776658",
"1. c #73734C",
"2. c #5C5A61",
"3. c #754660",
"4. c #744B62",
"5. c #7A4C65",
"6. c #7D4C67",
"7. c #6C5762",
"8. c #7C536A",
"9. c #785767",
"0. c #6F4F64",
"q. c #696667",
"w. c #7A6467",
"e. c #7C6673",
"r. c #787778",
"t. c #6F736C",
"y. c #576364",
"u. c #877930",
"i. c #855B59",
"p. c #8C5858",
"a. c #85655C",
"s. c #8C704E",
"d. c #844964",
"f. c #83546B",
"g. c #86586D",
"h. c #855C72",
"j. c #886867",
"k. c #966A69",
"l. c #95726E",
"z. c #896778",
"x. c #897778",
"c. c #967977",
"v. c #8D7072",
"b. c #A67B78",
"n. c #A06F71",
"m. c #77874C",
"M. c #7A8369",
"N. c #8D8738",
"B. c #A99834",
"V. c #D2B136",
"C. c #898748",
"Z. c #979549",
"A. c #928E50",
"S. c #A69750",
"D. c #B1AA56",
"F. c #9A837C",
"G. c #8F8E73",
"H. c #AD8C75",
"J. c #A7A765",
"K. c #B5AE70",
"L. c #C9B453",
"P. c #C4B866",
"I. c #C2B97C",
"U. c #C1AE68",
"Y. c #E2BD4E",
"T. c #D3C952",
"R. c #D1C670",
"E. c #ECD677",
"W. c #EDD65D",
"Q. c #797A82",
"!. c #8B7784",
"~. c #987887",
"^. c #946A81",
"/. c #A37C8D",
"(. c #8A8888",
"). c #998986",
"_. c #969389",
"`. c #8D8D92",
"'. c #998A95",
"]. c #989798",
"[. c #8D9291",
"{. c #A78A88",
"}. c #B78B87",
"|. c #A8938D",
" X c #A78796",
".X c #A89899",
"XX c #B59B98",
"oX c #B69290",
"OX c #9BA297",
"+X c #A8A39B",
"@X c #B5A49D",
"#X c #B0AC86",
"$X c #9C9DA3",
"%X c #A79BA5",
"&X c #B497A6",
"*X c #9FA2A3",
"=X c #A3A4A4",
"-X c #ABABAC",
";X c #AAA7A7",
":X c #B3A4A3",
">X c #B4ADAB",
",X c #BAADAB",
"<X c #B5A8A6",
"1X c #B8B3AC",
"2X c #ACACB3",
"3X c #A7AAB1",
"4X c #B5ACB2",
"5X c #AFB1B6",
"6X c #B3B3B4",
"7X c #BBB4B2",
"8X c #BBBBBC",
"9X c #B8B6B9",
"0X c #ADB0AF",
"qX c #C59B98",
"wX c #C6958A",
"eX c #CAA39B",
"rX c #CAB190",
"tX c #C6A8A7",
"yX c #D4AAA5",
"uX c #C3BDBB",
"iX c #C7B9B7",
"pX c #D6B8B7",
"aX c #CCAFAF",
"sX c #E1B7B1",
"dX c #C49FA7",
"fX c #D3CC88",
"gX c #EDE58E",
"hX c #C6C1BE",
"jX c #D6C8B8",
"kX c #ECE7A6",
"lX c #BBBBC1",
"zX c #C8BCC3",
"xX c #D6BBC6",
"cX c #D0AFC0",
"vX c #C4C3C4",
"bX c #CCCBCD",
"nX c #CAC5C6",
"mX c #D6C8C8",
"MX c #D7D1CD",
"NX c #CFCCD1",
"BX c #D5CDD4",
"VX c #D4D2D4",
"CX c #DBD6D8",
"ZX c #E5C8C9",
"AX c #E7CED4",
"SX c #E8D5D9",
"DX c #EFD7D7",
"FX c #E7E1DC",
"GX c #EBDAE2",
"HX c #F2DCE3",
"JX c #F4E4E7",
"KX c #F4E7EC",
"LX c #BEC7B7",
/* pixels */
"C 3 ;.E S G.I.D.D.P.L.N.u.^ u.~ C.1.D 1.E 9 a 7 # s  .V X., 4 L 7 & & 9 i $ @ O + @ O . O * & & &  .B S ^ B.T.T.L.B.D.Z.~ W m.W ",
";.I q Z J R Z.u.S.S.N.u.N.u.^ ^ ~ ^ M N w : a a , i f f L $ @ 9 $ + + O + @ @ $ + + O O & & . * & i 4 h m.P.P.D.T.D.P.S.! D W Z ",
"Z m.W B N F m.K.P.R.K.D.D.N.! ^ G ^ F e 5 @ w 8 1 u i 1 s     o X $ # + O : +   9 $ # , % & .   * > s E K.kXgXD.D.S.N.! S N Z W ",
"W R J 5 S m.A.I.R.fXE.D.J.Z.N.^ ! ! G K A 6 8 , a 1 X   o     o X O + +   o + @ s 9 $ # & O   * % i C C E A.! ^ F D ^ m.W Z N Z ",
"J.m.D M Q K.I.fXS.Z.C.N.K.I.J.A.B.u.~ ~ Q A w @ a u X         * + # < o     q o.I s # + + X * * * g y.| Z :.J D D A 5 Z Z W N 3 ",
"J.m.S M M Z A.J.! F F ~ I.R.I.rXS.u.u.~ ! Y z 5 9 % o *       o + q B d : + B t.X.d , + + o * u | y.M.:.I Z N 3 : 5 B ;.J J N 5 ",
"J.m.A M M M Q m.R M F ^ J.J.K.K.S.u.u.~ ! >.U 8 + # X %   *   o > a L B d s C I I s 7 7 2 o o 2 | y.| s C I ;.C 3 5 Z I N J ;.E ",
"A.m.R 6 M R S Q D D ^ ~ J.rX#XS.u.u.~ G ~ #.H @ - , # u * 2 > * + : < 9 s V B 2 C s s s 7 + o o * s > u C V Z 3 C 3 X.;.I ;.m.J ",
"A M w 6 K R Q S D N.Z.Z.m.D.fXZ.C.u.G u.u.P h 9 # s f g u * u s a 9 < q I X.B 2 2 2 < < 3 > o + , , + 4 L H 5 < 3 3 C :.;.E U K ",
"H w A 6 A T 1.~ ! Z.J.J.! ^ m.m.u.~ u.Y T h 4 4 7 d f a > > g V L B a q d X.,.,.X.s > > > o o > + @ 9 H U d : < 3 o > C 1.G.G.1.",
">.w w H 1.A.K.J.P.J.Z.Z.m.^ S M F F F A 4 @ @ 9 9 % $ # % u s g L H d 9 , a O.M.X.2 o , > > 2 2 : @ ; z x w w w 3 3 C C L 1.s.#.",
"_.>.>.G.rXrXfXfXkXgXR.Z.~ K A M e = = @ .   . , $ $ 1 1 1 i s d L d d L f 8 s  .V + X 2 > 7 V I 5 9 H Y Y Y U e 5 q s : 4 H T U ",
"1.U M.jXkX#XJ.U.R.R.K.~ S 6 5 4 @ .   . @ O   . & 9 i i 7 7 f o.,.o.,.t.t.>.V i g # 1 > X u :.,.d U 1.#.u.p.Y 4 o s V 3 + 9 z h ",
"3 : E kXkXrXS.S.R.P.K.J.m.E q > O . . @ O   X * *   . $ d P <.G.x._._.G._.].r.f % # u > o i | I d >.1.T x T T h : C X.V , , 9 9 ",
": : J K.fXfXU.U.P.L.R.K.1.V > * * * * *     X * % , a O.G.G.#X+X#XhX1X#X:XLX+XM.V g # # 2 s s 3 : H Y Y T T x w N 3 u C V f p . ",
"o : 5 1.C.I.R.kXR.Z.C.R B X.C o     * & & * X X # L r.<X1X+X+X#XhXMXFXMXMXbXnXhX].q.1 + s f i i q q 0 h K e = w d < u s s a a 0 ",
": o 4 6 K s.J.J.C.Q Y 1.1.X.q o .   O # O o $ 9 o.G.@X@X,X@X|._.,XmXMXhXmXSXMXnX7X=Xq.2 # f f $ 8 8 8 9 8 8 5 q < B B d , 9 f $ ",
": 4 w H w A H L H 4 6 H H q 4 4 . = . . O O 8 X._.@XiXjXjXeX|.F.@XiXjXmXmXhXiXuXhXLXOXq.f i i u i 7 9 9 2 < , 7 I 7 2 I V 9 9 = ",
"e e w w 4 4 q q 5 : : : @ @ 4 = ; ; = . $ = L x.+X|.@XtX@X|.F.x.c.F.)..X1X7X,X1X1X7XLX*Xq.a % i 1 9 # + 2 < > 3 X.s s L  .V i - ",
"H.<.x e e q 5 3 < : : : @ 0 0 0 l y ; = = d t.|.{.c.c.oX{.{.oX|.F.x.<.x.+XaX7X7X;X:X1X1X].O.p % % 1 # > < 2 > 3 3 < s : , d 1 + ",
"sXwXp.x w q : o o o 3 < p v =.a.b l l ; = @..XXX{.c.}.eXyXyXpXpXpXaXXX)..X,XtX<X1X<X>X7X1X_.O.9 i 1 > u u u > > > o > > o + + s ",
"U.H.s.h 4 = 3 q s X.I C p <.F.v.T l l ; 0 c.aX@X{. XdXpXsXZXZXjXmXZXpX@XXX.X:X:X<X<X1X1X8X>Xr.X.f g u u s s > > s 2 3 > s B V X.",
"}.b.p.h e H I :.X.,.,.p p <.j.T l l ; ; #.@XaX|.k.oXyXtXaXpXpXyXtXpXaXtXoX{.|.@X+X@X<X>X7X9X+Xr.V f u u s u 3 3 > C 2 o q V | V ",
"B.p.T h Y F.G.G.o.8 O 8 L U P l ; y = w F.iXXXF.j.dXaXqXdXaXaXaXyXtXeXtXtX|.{.XX:X,X<X:X>XiX;X_.| g u > u s 2 i 2 V 3 > 3 u s > ",
"h G p.V.H.rXF.Y 0 z z 9 ,.w 4 - = = ; l _.iX@Xc.#.@XXXqXaX:XaXtXtXyXqXtXoX{.oX|.:X@X:X<X>X7X4X6Xt.| u i V f 7 a 7 d q > < > > 3 ",
"G B.Y.wXJ.rXH.Y P P o.L L w I H ; = = L #XhX@XG.+.{.l.j.b.oXtX{.{.oXb.k.#.=.{.XXXX%X.X<X>X,X7X7X*Xt.g 1 g d 9 8 q a w V X.C 3 u ",
"B.L.Y.U.S.s.s.<.P x +.U d B I H 9 . 9 o.+X1X+XF.=.v.+.T ' T l.#X}.a.m m m P l.XXXX.X.X:X<X>X7X7XlX[.O.i a p 8 - L z 8 d | X.X.:.",
"L.R.Y.U.K.J.A.;.P v v :.,.;.L f $ . 8 t.>X1X+X|.~.}.c.k.=.T F.sXoXp.m #.i.i.c..XXXXX<X<X<X4X6X9X8X-XM. .v v z z z d w 8 C Z X.:.",
"V.L.T.E.gXI.m.m.@.d a o.o.o.8 a @ & V (.1X1X.X|.c.eXyXeXwXwXeXyXeXwX}.{.}.XXeXXXXX:X,X,X>X>X7X8XvXnX1XM.o.P <.G.@.H 0 8 q d :.G.",
"T.T.W.E.gXm.m.OXG.s g X.i a - . & i O.+X0X1X|.|.i.{.yXsXyXqXyXyXsXeXyXyXyXpXtX|..X@X,X,X>X,X6X9X9XhXmX<Xj.,.l.F.l.x e w q N M.LX",
"W.W.E.E.P.m.M.OX[.| | y.g v 0 = 9 _ t.-X+X,X.X{.c.k.}.yXyXwXeXsXyXb.}.yXpXXXc.{.|..X,X7X4X>X6X7X1X1XmXjX|.j.l.F.@.h 0 H H I m.[.",
"V.V.W.E.gXm.W m.X.C | | 7.q.0 ; p O.(.7X+X1X@X{.H.i.p.}.qXyXwXH.b.k.wXyXwXH.j.l.c.|.<X7X1X>X>X1XnXiXhXhX@XF.H.oXa.@.P z H :.M.m.",
"V.V.Y.R.R.J.R J < I O.X.L y = l ..F.<X:X@X<X.X|.{.{.a.n.eXyXwXb.p.k.qXyXwXn.j.i.j.).XXtXiX8X7X;XuX1XuXmXjX<X|.).<...l p v P o.@.",
"V.Y.E.E.R.J.! ;.I o.V 8 v P +.v.x.,XuX1X<X@X+X{.).H.F.l.n./.}.p.p.p.p.k.p.p.p.T #.j.|.<XiXuX7X;XuX7XuXhXmXiX@X{.j.P 0 0 z d d d ",
"E.W.E.K.C.Q N q V :. .p ..c.{.{.,XMXMX1X<X<X.X_.{.c.{.k.p.b.H.k.p.p.k.n.k.p.+.m l +.v..X1XuX7X-X>XuXhXiXjXmXiX+XF.+.p p p p 0 8 ",
"L.S.Z.! J H I d i  ...@.v.{.}.{.iXSXSX7X+X@X.X).).F.H.a.p.n.b.}.k.n.b.b.p.m b l l x @.x.+XiX7X>X+X1XhXhXhXhXjXaX_.q.v p p - p p ",
"! D R E J ,.G.r.v g _ x.F.v.b.pXAXJXFXhX1X+X|.|.c.XXXX<.=.l.k.oX}.b.k.j.*.m x l x v v @.F.=X4X4X].+X<XiXhXjXhXhX.Xr.v p i - i g ",
"m.J N J o.t.OX(._ f ..7.w.v.oXjXMXFXFXMXhX<X:X@X|.iX|.=.H.eXl.j.k.j.p.=.m m m m -.b l _ 7.(..X<X>X+XOX0XnXbXnXhXiX(...g p g i i ",
"m.J 5 Z o.,.r.7._ %.9.-.9..XpXaXjXMXMXCXMXhX,XiXtX,XF.F.pXZX@Xl.=.f.g.i.-.+.} +.=.+.b b ..q.(..X1X-XOX+X1XnXmXvXvX;Xr.O.g g g r ",
"W E ;.M.>.d v v 7.%.9.e.~.aXmXmXbXbXmXSXSXnXaXiX1X.Xc.aXDXZXjXpXXXb.k.l.b.b./.k.w.7.%..._ O.r.'.:X1X>X_..X8XMXMXzXuX*Xq._ g g g ",
"W R h >.#.l z -.0.0.9.~.lXxXBXbXnXmXnXSXMXiXiX:X).).,XAXJXDXSXZXZXZXZXpXZXsX/.{.f.0.=.7..._ 7.)..X+X>X>X;X=X1XhXnXVXvX[.y.| / / ",
"J.C.K K x l -.8.$.4.^.&XzXBXNXVXMXMXnXmXmX<X%X{.%XtXxXAXDXDXDXZXZXZXAXZXpXdX/./. Xj.+._ _ +.0.e._.+X;X<X1XvXLX6XvXvXVXvX[. ./ / ",
"K.K.H.s.l x i.+.&.^.&XBXGXBXNXVXnXMXiXiXiX&X|..XmXAXDXAXAXDXSXMXAXZXDXsXoX X/.z. X^.8.%...) %.9..X<X>X].)..X8XbXNXbXCXFXvXr.O. .",
"#XI.H.Y x m i.i.^./.cXGXGXNXbXlX7XiX7XiXnX|.'.iXDXHXGXAXAXFXSXAXAXZXAXdX~./.z.h.8.^.~.z.0.%.-.7.z.].7XuX%X(._.>XlXvXNXCXCX9XQ. .",
"! 1.T x #.j.=.9.~.lXAXGXVXVXvX9XiXzXiXxXaXx.!.xXHXHXAXAXSXHXGXSXDXDXpXc.c./.z.g.$.5.8.h.h.h.*.%.w.!.:XzXuX;X).(._.].-XLXCXFX-Xq.",
"; w e 0 j.l.9.v.&XxXCXBXNXNXvX6XnXzXmXiX Xw.j.aXHXDXAXHXGXJXGXHXDXAXXXg.^. X^.f.4.&.} $.8.h.f.=.w.x.).].;X7X;X[.(.(.[.OXLXVXnX1X",
"; 0 - &  .w.x.%XzXxXCXBXbXvXhXLXiXiXzX:Xx.w.e. XAXHXSXAXSXGXJXHXHXdXc.f.~./.h.d.5.6.3.&.$.$.f.z.%.x..X&X<X>X-X].OX(.(.(.OX1XbXFX",
"= . - - ..!.!..XzXxXBXCXNXuXhXbXxXzXxX'.9.j.9.z.xXAXHXAXBXGXKXGXDX~.f.j.^./.h.&.8.6.6.3.[ { *.g.9.~.<XzXuX;X].].G.(.(.G.OX1XLXjX",
"& - & i 2.r.(.4XmXCXGXCXVXBXVXVXNXBX%X6.Q.6.} ^.&XZXAXAXSXSXCXKXdX6.Q.6./.&X` { 6.6.d.3.{ { 6.8.9.].4XzXBXbX9X*X[.[.(.(.(.].0XhX",
"& r % i 2.!.].4XNXCXCXCXCXVXVXVXBXzX~.Q.^.6.6.^./.xXxXxXCXSXJXmX/.3.6.6.~./.6.4.6.6.6.6.6.6.3.$.q.'.&XlXNXNXvX5X*X].[.[.(.(.OX0X",
"% i r g q.`.=XlXNXVXCXCXVXVXVXNXBX%XQ.0.6.6.f.d.^.cXxXAXAXFXKX.X6.Q.Q.3.^./.^.6.5.3.3.3.3.{ { ( e.'.2X9XzXvXbXlXlX3X*X].[.(.[.].",
"% r r _ r.`.3XzXNXNXNXNXVXVXNXbXlX~.0.8.6.6.^.d.d.&XcXAXSXKXCXv.&.6.6.6.^.^.^.6.4.6.6.} ` ( ( ] ^.%X4X4X9XlXnXvXbXlX0X-X].(.(.[.",
"- & g 2.Q.'.=XvXNXVXNXvXbXNXNXbX3XQ.&.8.d.d.g.d.d.^.cXAXHXKX:X7.3.6.{ 6.^.8.^.4.8.8.6.3.` ( { 4.Q.%X2X4X4X2XlXlXbXlX6X0X=X].(.[.",
"& r / q.`.`.=XzXvXvXzXlXzXvXzXlX'.9.3.6.d.d.g.f.g.g.cXGXKXGX!.7.$.{ ` 0.^.^.6.4.6.3.$.$.$.{ &.6.!. X%X4XlX%XlXzXNXbXLX0X-X=X]._.",
"r r  .q.(.$X2XlXlXlXlXlXvXvXlX2X^.8.3.d.d.d.d.d.f.8.&XSXKXxXz.0.` ` $.6.^.8.4.8.$.` ` { ] ` $.0.~.'.%X4X4X%XlXNXVXVXvX6X-X-X=X].",
"& / 7.Q.Q.$X9XlXlXlXlXlXvXzX4X$XQ.8.&.} d.d.d.d.d.6.~.xXKX&X0.%.( ` 3.Q.^.8.$.3.{ { ] ` ( n ] 8.'.%X X4X4X'.2XNXVXVXnX0X=X0X=X`.",
"r / 2.2.Q.3X3XlX3X3X9X9XlXlX3X'.Q.3.3.3.&.d.d.d.f.6.8.xXGX!.%.n ( 3.Q.6.} 3.3.3.` ` ` ( j ( { 8.~.%X%X.X%X'.%XVXVXVXbX5X3X*XOXOX",
"r / 2.Q.$X3XlXlX3X3X3X5XlX3X$X'.e.%.3.&.} d.} d.3.3.8.cXxX8.( j { 3.0.0.3.3.$.{ ` ` ( j t ( 3.Q.~. X'.'.%X].%XvXNXNXLX9X-X*X*XOX",
"r _ 2.Q.$XlX5X3X3X%X3X9XlX$X`.`.e.] $.$.} d.} d.6.3.6.&X&X] j ` 0.3.$.3.0.3.{ ` n c c t j %.8.8.Q./.'.~.].%X%X9XvXvXlX9X0X*X*X*X",
"r  .Q.Q.3XlXlX3X3X2X2X9X3X].(.r.7.' { { { } } d.6.6.{ ^.Q.( ( } 3.3.3.3.$.{ ` n j t y t ( 0.8.] %.^.!.!.!..X>X9XlXLXlX5X0X-X-X-X",
"r  .Q.`.3XlXlXlX3XlXlX3X$X`.Q.q.2.( ' ] ` } } 3.5.8.$.] ` ( $.Q.&.3.3.&.] ( j t t y t ( ' ] %.] %.e.e.e.z.].2X6X8XLX9X9X0X0X-X=X",
"r  .Q.$X3XlX3XlX3XlXlX3X$X`.Q.2. .( _ ] ` { { } $.6.4.) ` $.0.3.&.&.{ ` n t y y t t ( 3.] _ %.9.%.e.Q.e.!.%X4X4X8X9X0X5X0X=X=X=X",
"r | Q.Q.3XlX3X3X3X3X5X3X$X`.Q.q./ t _ ] { { ` { ] 4.4.] { 3.3.{ { ` n n t t t j / n %.0.%.] 0.0.0.7.9.e.!.%X9X6X*X*X*X*X=X*X*X*X",
"r / Q.`.3X3X3X3X3X3X$X$X$X!.Q.Q./ t _ ] { { ` ` ` $.0.] { &.{ { ` n t y t t ( { ( ( ] 0.0.%.$._ _ _ %.7.!.:X8X2X].[.[.OXOX*XOX*X"
};
